<?xml version="1.0" standalone="no"?>
<!DOCTYPE svg PUBLIC "-//W3C//DTD SVG 20010904//EN"
        "http://www.w3.org/TR/2001/REC-SVG-20010904/DTD/svg10.dtd">
<svg version="1.0" xmlns="http://www.w3.org/2000/svg"
     width="1280.000000pt" height="1280.000000pt" viewBox="0 0 1280.000000 1280.000000"
     preserveAspectRatio="xMidYMid meet">
    <metadata>
        Created by potrace 1.15, written by Peter Selinger 2001-2017
    </metadata>
    <g transform="translate(0.000000,1280.000000) scale(0.100000,-0.100000)"
       fill="#FFE030" stroke="none">
        <path d="M6235 11861 c-194 -53 -357 -170 -510 -366 -378 -484 -571 -1368
-480 -2208 7 -65 14 -119 16 -121 2 -2 49 11 104 29 55 18 126 36 158 40 l59
7 -9 111 c-14 194 -8 647 11 791 94 719 365 1254 701 1382 259 99 558 -161
755 -656 78 -196 140 -452 177 -725 24 -185 24 -715 0 -900 -71 -530 -232
-952 -461 -1209 l-44 -50 -38 34 c-21 18 -68 47 -104 64 -60 29 -73 31 -171
31 -101 0 -108 -1 -181 -38 -127 -62 -207 -170 -231 -312 -29 -170 67 -353
230 -436 65 -33 71 -34 182 -34 107 0 120 2 173 28 114 56 214 177 234 283 5
27 20 45 64 79 132 102 283 297 387 500 308 604 402 1495 243 2295 -141 709
-471 1221 -878 1363 -115 40 -278 48 -387 18z"/>
        <path d="M6100 9059 c-1608 -129 -2971 -1160 -3527 -2664 -184 -499 -266
-1038 -242 -1588 83 -1887 1473 -3480 3332 -3821 268 -50 400 -60 737 -60 337
0 469 10 737 60 1742 320 3083 1742 3308 3506 34 268 36 685 5 958 -154 1370
-1006 2582 -2245 3195 -116 57 -412 185 -429 185 -2 0 -6 -24 -9 -52 -4 -33
-25 -92 -57 -157 -28 -57 -49 -105 -48 -106 2 -1 64 -26 138 -55 407 -162 819
-425 1147 -732 655 -613 1056 -1403 1170 -2303 24 -194 24 -674 0 -860 -38
-284 -86 -502 -165 -741 -427 -1294 -1536 -2261 -2878 -2509 -429 -79 -919
-79 -1348 0 -498 92 -955 277 -1386 559 -843 554 -1441 1458 -1619 2446 -46
259 -55 363 -55 675 0 325 14 474 69 748 194 955 770 1812 1585 2357 524 350
1084 551 1710 615 133 14 219 16 445 11 154 -3 301 -9 326 -12 l47 -6 35 109
c38 114 59 204 51 213 -26 25 -626 46 -834 29z"/>
        <path d="M4441 7265 c-375 -188 -540 -401 -541 -698 0 -92 4 -96 94 -80 181
32 322 138 416 314 42 80 95 244 124 388 14 69 24 126 22 128 -2 2 -53 -22
-115 -52z"/>
        <path d="M8246 7287 c20 -109 60 -273 86 -346 94 -267 247 -414 474 -454 90
-16 94 -12 94 80 -1 290 -169 512 -523 690 -49 24 -100 48 -113 53 -22 9 -23
7 -18 -23z"/>
        <path d="M3567 7020 c-192 -403 -196 -681 -11 -914 l46 -58 47 46 c143 141
200 353 153 576 -23 111 -77 260 -137 380 l-43 85 -55 -115z"/>
        <path d="M9122 7023 c-106 -225 -149 -394 -139 -548 10 -149 59 -264 158 -369
l56 -60 47 60 c151 191 176 425 75 711 -30 84 -133 313 -142 313 -2 0 -27 -48
-55 -107z"/>
        <path d="M4325 6499 c-134 -48 -315 -143 -388 -204 -76 -63 -148 -154 -183
-231 -27 -61 -54 -185 -54 -249 l0 -45 63 0 c242 1 436 150 557 429 34 79 110
301 110 323 0 12 -18 9 -105 -23z"/>
        <path d="M8370 6522 c0 -22 76 -244 110 -323 121 -279 315 -428 558 -429 l62
0 0 45 c0 64 -27 188 -54 249 -35 77 -107 168 -183 231 -74 61 -272 164 -404
209 -83 29 -89 30 -89 18z"/>
        <path d="M3177 6204 c-64 -242 -80 -454 -44 -598 33 -131 111 -252 219 -337
l41 -33 20 25 c35 42 87 162 103 239 30 141 3 292 -80 459 -36 71 -155 252
-204 310 l-28 33 -27 -98z"/>
        <path d="M9548 6243 c-63 -81 -149 -215 -191 -298 -108 -216 -113 -411 -16
-604 53 -107 59 -111 109 -71 190 151 265 371 226 667 -13 100 -68 349 -80
360 -1 2 -23 -23 -48 -54z"/>
        <path d="M3934 5706 c-226 -162 -364 -324 -417 -491 -18 -56 -22 -93 -22 -185
1 -63 6 -134 13 -157 l12 -42 75 26 c227 76 360 254 411 548 17 93 33 365 23
365 -3 0 -46 -29 -95 -64z"/>
        <path d="M8772 5628 c21 -442 153 -677 433 -771 l75 -26 12 42 c7 23 12 94 13
157 0 203 -52 316 -230 496 -91 91 -281 244 -304 244 -3 0 -3 -64 1 -142z"/>
        <path d="M2898 5343 c27 -477 174 -753 453 -850 55 -19 74 -22 79 -12 17 26
33 174 26 246 -13 160 -82 290 -227 428 -79 74 -300 235 -325 235 -5 0 -8 -21
-6 -47z"/>
        <path d="M9772 5314 c-134 -90 -274 -220 -332 -308 -83 -128 -114 -279 -90
-433 6 -44 15 -86 20 -92 5 -10 24 -7 79 12 254 89 401 329 440 718 18 172 18
179 6 179 -5 0 -61 -34 -123 -76z"/>
        <path d="M3940 4998 c-287 -326 -377 -570 -304 -819 24 -80 55 -149 68 -149
25 0 137 84 192 142 67 74 118 173 140 278 12 58 15 112 11 235 -5 146 -30
349 -46 367 -4 4 -31 -20 -61 -54z"/>
        <path d="M8796 5050 c-38 -113 -58 -480 -32 -600 22 -105 73 -204 140 -278 55
-58 167 -142 192 -142 13 0 45 69 70 155 24 80 24 228 1 315 -38 140 -153 327
-309 501 -39 43 -59 59 -62 49z"/>
        <path d="M2800 4524 c0 -3 27 -58 60 -122 113 -223 210 -347 336 -431 115 -77
260 -113 379 -94 50 9 50 9 47 43 -19 202 -146 387 -331 478 -103 52 -211 85
-360 112 -126 22 -131 23 -131 14z"/>
        <path d="M9845 4505 c-240 -45 -379 -108 -496 -225 -100 -99 -159 -223 -171
-360 -3 -33 -2 -34 42 -43 61 -11 164 -1 243 23 142 44 289 176 397 355 45 75
140 258 140 270 0 8 -28 5 -155 -20z"/>
        <path d="M4074 4222 c-248 -354 -300 -618 -172 -872 24 -48 50 -86 60 -88 22
-4 152 119 194 185 19 28 46 87 61 130 25 72 27 90 27 223 0 120 -5 164 -26
256 -33 142 -67 254 -76 254 -4 0 -34 -40 -68 -88z"/>
        <path d="M8631 4243 c-64 -217 -86 -357 -78 -492 6 -112 39 -225 91 -304 42
-66 172 -189 194 -185 9 2 34 35 54 74 113 215 94 446 -60 719 -49 89 -163
255 -174 255 -4 0 -16 -30 -27 -67z"/>
        <path d="M2944 3808 c65 -109 159 -231 246 -318 101 -101 188 -159 280 -188
68 -21 235 -23 301 -4 l47 14 -14 54 c-22 81 -50 141 -100 211 -110 154 -284
235 -568 262 -60 6 -134 11 -163 11 l-54 0 25 -42z"/>
        <path d="M4426 3803 c-45 -90 -115 -278 -138 -368 -31 -126 -31 -292 -1 -390
24 -77 70 -159 129 -231 l39 -47 51 57 c167 184 199 431 93 719 -32 89 -134
307 -143 307 -3 0 -16 -21 -30 -47z"/>
        <path d="M8286 3740 c-106 -222 -146 -362 -146 -517 0 -49 7 -115 15 -147 22
-83 78 -185 139 -252 l51 -57 39 47 c193 236 204 486 36 882 -76 182 -69 180
-134 44z"/>
        <path d="M9640 3838 c-359 -37 -570 -192 -644 -472 l-14 -54 47 -14 c66 -19
233 -17 301 4 180 56 367 240 544 536 9 14 -97 15 -234 0z"/>
        <path d="M4797 3405 c-32 -112 -33 -487 -2 -600 43 -156 136 -286 260 -364 36
-23 69 -41 74 -41 5 0 23 36 40 79 111 289 34 530 -270 846 -81 83 -97 96
-102 80z"/>
        <path d="M7890 3314 c-155 -163 -244 -300 -286 -440 -24 -80 -24 -238 0 -319
24 -80 56 -155 67 -155 24 0 144 87 193 141 112 120 166 290 166 521 0 127
-17 321 -30 346 -4 9 -39 -21 -110 -94z"/>
        <path d="M3430 3184 c-150 -23 -148 -16 -39 -126 260 -263 481 -363 701 -317
56 12 178 63 178 74 0 4 -16 37 -35 75 -70 132 -182 230 -319 278 -62 22 -91
25 -231 28 -106 2 -192 -2 -255 -12z"/>
        <path d="M8965 3190 c-174 -35 -316 -141 -400 -300 -19 -38 -35 -71 -35 -75 0
-11 122 -62 178 -74 220 -46 441 54 701 317 68 69 90 97 80 102 -55 30 -421
50 -524 30z"/>
        <path d="M5290 2870 c0 -23 109 -261 155 -339 58 -97 173 -225 245 -271 27
-17 72 -40 100 -51 66 -25 191 -42 242 -34 l41 7 -7 64 c-4 35 -16 94 -27 131
-76 247 -272 391 -657 483 -98 23 -92 23 -92 10z"/>
        <path d="M7380 2851 c-299 -79 -456 -174 -561 -339 -37 -59 -76 -181 -85 -265
l-7 -65 41 -7 c51 -8 176 9 242 34 28 11 73 34 100 51 72 46 187 174 245 271
46 78 155 316 155 339 0 14 -10 12 -130 -19z"/>
        <path d="M4195 2674 c-75 -14 -333 -94 -365 -114 -18 -11 -17 -12 120 -105
111 -74 228 -135 320 -165 82 -27 226 -37 303 -20 69 14 203 79 236 114 l24
26 -28 40 c-47 68 -141 147 -218 184 -119 57 -233 68 -392 40z"/>
        <path d="M8335 2678 c-117 -22 -267 -123 -340 -228 l-28 -40 24 -26 c33 -35
167 -100 236 -114 77 -17 221 -7 303 20 115 38 309 147 435 245 27 21 21 24
-145 79 -208 70 -355 89 -485 64z"/>
        <path d="M5006 2309 c-70 -11 -139 -35 -220 -76 -71 -36 -242 -148 -305 -201
l-33 -28 108 -37 c162 -55 272 -77 396 -77 171 0 260 27 374 113 67 51 154
155 138 165 -6 4 -31 22 -57 40 -71 50 -164 90 -237 101 -73 12 -94 12 -164 0z"/>
        <path d="M7620 2309 c-64 -11 -180 -63 -244 -111 -25 -18 -45 -35 -46 -38 -1
-19 110 -135 167 -173 103 -71 166 -90 309 -95 146 -5 246 12 423 70 l124 41
-34 29 c-129 108 -363 241 -469 266 -70 17 -170 22 -230 11z"/>
        <path d="M6335 2161 c-45 -27 -69 -69 -69 -122 0 -65 29 -109 86 -133 45 -18
49 -18 92 -2 78 30 112 112 77 190 -34 78 -119 109 -186 67z"/>
        <path d="M5690 2044 c-131 -34 -289 -132 -462 -286 -47 -42 -65 -64 -56 -69
32 -17 243 -59 338 -68 280 -26 480 57 616 255 l39 56 -25 20 c-110 89 -308
130 -450 92z"/>
        <path d="M6858 2044 c-62 -14 -158 -59 -198 -92 l-25 -20 39 -56 c136 -198
336 -281 616 -255 95 9 306 51 338 68 9 5 -9 27 -56 69 -286 254 -498 339
-714 286z"/>
    </g>
</svg>
